<?xml version="1.0" encoding="UTF-8" standalone="no"?>
<!-- Created with Inkscape (http://www.inkscape.org/) -->

<svg
   version="1.1"
   id="svg2"
   width="150"
   height="150"
   viewBox="0 0 150 150"
   sodipodi:docname="VM-icon.png"
   inkscape:version="1.1.2 (0a00cf5339, 2022-02-04)"
   xmlns:inkscape="http://www.inkscape.org/namespaces/inkscape"
   xmlns:sodipodi="http://sodipodi.sourceforge.net/DTD/sodipodi-0.dtd"
   xmlns="http://www.w3.org/2000/svg"
   xmlns:svg="http://www.w3.org/2000/svg">
  <defs
     id="defs6" />
  <sodipodi:namedview
     id="namedview4"
     pagecolor="#505050"
     bordercolor="#eeeeee"
     borderopacity="1"
     inkscape:pageshadow="0"
     inkscape:pageopacity="0"
     inkscape:pagecheckerboard="0"
     showgrid="false"
     inkscape:zoom="4.9933333"
     inkscape:cx="75.100134"
     inkscape:cy="75"
     inkscape:window-width="1850"
     inkscape:window-height="1009"
     inkscape:window-x="0"
     inkscape:window-y="0"
     inkscape:window-maximized="1"
     inkscape:current-layer="g8" />
  <g
     inkscape:groupmode="layer"
     inkscape:label="Image"
     id="g8">
    <path
       style="fill:#000000"
       d="M 70.279278,149.33989 C 50.353073,147.16971 31.341505,137.91702 19.874485,124.80849 l -4.582287,-5.23824 2.49354,-1.3065 c 3.534213,-1.85176 3.128955,-3.36009 -0.557507,-2.07498 -1.678075,0.58498 -3.32985,0.7848 -3.670609,0.44404 -0.750264,-0.75027 3.441905,-5.37742 6.221656,-6.86722 1.790828,-0.95979 1.856461,-0.8979 0.627555,0.59182 -0.966593,1.17173 -1.02307,1.66372 -0.190983,1.66372 0.649804,0 0.903347,0.45 0.563428,1 -2.706459,4.37914 10.865008,-5.15669 14.649969,-10.29362 6.934994,-9.412173 10.754789,-22.223683 9.033014,-30.296554 -0.520587,-2.440868 -0.617278,-4.641425 -0.21487,-4.890127 0.402408,-0.248702 3.161705,1.104831 6.131769,3.007852 11.083831,7.101784 26.701899,9.562516 35.455925,5.586314 4.993429,-2.268084 10.732973,-8.796666 12.283635,-13.972316 1.69967,-5.672991 1.334122,-10.012561 -1.317582,-15.641557 -2.033047,-4.315721 -2.366787,-4.632556 -2.438628,-2.3151 -0.04578,1.476696 0.418163,3.951696 1.030979,5.5 2.443352,6.173229 0.357286,13.935809 -5.162623,19.210931 -8.004328,7.649365 -23.016697,6.83448 -36.377468,-1.974602 -4.105226,-2.706676 -7.925101,-4.921229 -8.48861,-4.921229 -2.56157,0 -14.166638,-19.791637 -19.607958,-33.44001 l -2.766837,-6.940011 3.894643,-3.29665 c 3.834441,-3.245692 4.010576,-3.287717 11.394643,-2.71871 5.981967,0.460963 7.904808,0.25611 9.499999,-1.012095 1.89671,-1.507918 1.793419,-1.562455 -2,-1.055998 -2.2,0.29372 -5.349999,0.106839 -6.999999,-0.415292 -2.841595,-0.899202 -2.867996,-0.954676 -0.5,-1.050594 2.048189,-0.08296 2.228913,-0.292981 1,-1.162084 -1.333333,-0.9429495 -1.333333,-1.0106925 0,-0.609687 0.825,0.248122 1.369098,1.012588 1.209106,1.698812 -0.182006,0.780651 0.316507,1.0146 1.331788,0.625 0.892473,-0.342474 1.810876,-0.622681 2.040892,-0.622681 0.230017,0 0.418213,-1.082662 0.418213,-2.4059155 0,-2.194124 0.213376,-2.305217 2.42393,-1.262003 1.622204,0.765558 2.035647,1.390883 1.25,1.8906025 -0.89322,0.568142 -0.889142,0.750352 0.01705,0.762003 0.655041,0.0084 1.444899,-0.395531 1.75524,-0.897675 0.310345,-0.5021425 2.361902,-1.2166965 4.55902,-1.5878975 5.654152,-0.955263 5.189876,-2.934772 -0.50524,-2.154169 -2.475,0.339236 -4.5,0.210301 -4.5,-0.286524 0,-1.749407 13.088252,-4.74784 23,-5.26914895 l 5.5,-0.289273 0.568059,3.99999995 c 0.54939,3.868552 1.422897,3.459148 2.133607,-1 0.188219,-1.180926 1.236039,-2.130867 2.55855,-2.319551 2.762999,-0.39419795 2.874508,0.935159 0.275722,3.287027 -2.459714,2.226011 -5.476213,9.9428045 -4.688781,11.9948185 0.324541,0.845738 1.504197,1.537706 2.621458,1.537706 1.596344,0 2.031385,-0.651012 2.031385,-3.039838 0,-1.671911 0.882594,-4.709411 1.96132,-6.7500005 3.461389,-6.547792 3.166211,-6.376161 8.864288,-5.154142 2.845915,0.61034 5.174412,1.40992 5.174436,1.776844 2.5e-5,0.366925 -1.687475,2.128616 -3.75,3.914869 -4.284951,3.7109905 -1.6623,3.3705695 3.512262,-0.455893 2.944766,-2.177579 3.590686,-2.293653 6.635896,-1.192491 1.85547,0.670947 4.43395,2.019739 5.72995,2.9973155 l 2.35637,1.777411 -2.0865,2.812963 c -1.14757,1.547129 -3.97437,4.148218 -6.28178,5.780197 -4.40779,3.117537 -9.84475,3.744285 -18.460226,2.128012 -2.896812,-0.543446 -3.656016,-0.372281 -3.656016,0.824256 0,2.509826 3.109811,3.380114 11.158474,3.122726 8.806078,-0.281609 14.566148,-2.958452 19.657708,-9.135397 3.14368,-3.813818 4.96819,-3.781423 8.22774,0.146085 1.21499,1.463975 0.89039,2.118278 -2.72297,5.488783 -2.70421,2.522465 -5.41771,4.034912 -7.96167,4.43767 -2.1226,0.336048 -5.20928,0.994725 -6.85928,1.463726 -2.56296,0.728501 -2.14793,0.867601 2.84887,0.954816 8.17377,0.142667 14.91338,-3.515228 16.94735,-9.198096 1.15421,-3.224857 12.78162,11.858258 18.22707,23.64423 10.81891,23.416109 8.58213,49.832589 -6.1158,72.227952 -12.77949,19.47222 -32.38727,30.4615 -58.407492,32.7348 -2.475,0.21623 -6.075,0.22162 -8,0.012 z M 97.11996,132.96188 c 2.716518,-0.58259 5.77617,-1.7288 6.79922,-2.54712 1.71467,-1.37154 1.59623,-1.43674 -1.51482,-0.83386 -2.24334,0.43473 -3.63449,0.23402 -4.149077,-0.59859 -0.425786,-0.68894 -1.523094,-0.96522 -2.438462,-0.61396 -0.915369,0.35126 -1.419721,1.0344 -1.120782,1.5181 0.653467,1.05733 -5.121363,2.10851 -11.666761,2.12367 -2.6125,0.006 -4.75,0.46101 -4.75,1.01101 0,1.32823 12.555209,1.28874 18.840682,-0.0592 z m -31.258179,-1.80726 c -0.30189,-0.48847 1.489842,-0.48812 4.106864,7.9e-4 2.553317,0.47701 4.867748,0.64194 5.14318,0.36651 0.275433,-0.27544 -0.04174,-0.50079 -0.704835,-0.50079 -2.15924,0 2.25344,-3.79191 4.872288,-4.18687 2.327315,-0.35098 2.209188,-0.53023 -1.710162,-2.59508 -2.315589,-1.21993 -5.367212,-2.21805 -6.781385,-2.21805 -1.414172,0 -2.815874,-0.63755 -3.114893,-1.41678 -0.299019,-0.77923 -2.197396,-2.52297 -4.218615,-3.87497 -2.02122,-1.352 -6.092842,-4.79219 -9.048049,-7.64486 -5.191608,-5.01148 -5.356306,-5.33571 -4.875811,-9.598663 l 0.497293,-4.41197 -2.546768,2.00329 c -1.400722,1.10181 -3.044459,3.002443 -3.652749,4.223623 -0.60829,1.22118 -4.225715,4.01752 -8.038724,6.21409 -4.180103,2.40804 -6.279925,4.11948 -5.288571,4.31039 0.904294,0.17415 3.002033,-0.38554 4.661643,-1.24375 4.006441,-2.07182 4.116792,-2.03365 4.116792,1.42382 0,3.02243 5.91017,11.03188 5.970686,8.09147 0.0214,-1.04004 0.636357,-0.85775 2.279313,0.67566 1.2375,1.15499 4.275,3.30148 6.75,4.76998 4.153289,2.4643 4.037851,2.59308 -0.75,0.8367 -1.611335,-0.5911 -1.622981,-0.50653 -0.146975,1.06731 2.620539,2.79424 14.005396,6.17714 12.479478,3.70815 z m 6.229997,-3.8166 c 0.721875,-0.28887 1.584375,-0.25335 1.916667,0.0789 0.332291,0.3323 -0.258334,0.56864 -1.3125,0.52522 -1.164943,-0.048 -1.4019,-0.28494 -0.604167,-0.60416 z m -3.8125,-3.31689 c -1.827966,-1.18132 -0.249085,-1.18132 2.5,0 1.31874,0.56668 1.489055,0.87815 0.5,0.9144 -0.825,0.0302 -2.175,-0.38124 -3,-0.9144 z m -20.595012,-13.25 -1.904988,-2.25 2.25,1.90499 c 2.114445,1.79022 2.705241,2.59501 1.904988,2.59501 -0.189757,0 -1.202257,-1.0125 -2.25,-2.25 z m -2.946107,-3.81653 c -0.362533,-0.58659 -0.444683,-1.281 -0.182555,-1.54313 0.262128,-0.26213 0.743066,0.21781 1.068751,1.06653 0.676184,1.76211 0.09985,2.07206 -0.886196,0.4766 z m 46.541119,22.17494 c 0,-1.08108 -4.990786,-2.45096 -5.839038,-1.6027 -0.810934,0.81093 1.909019,2.4599 4.089038,2.47898 0.9625,0.008 1.75,-0.38591 1.75,-0.87628 z m 27.107392,-8.18488 c 1.60387,-1.14205 2.6998,-2.42649 2.4354,-2.8543 -0.2644,-0.42781 -3.23785,-1.06601 -6.60767,-1.41822 -7.54646,-0.78876 -16.906556,-5.11325 -23.357201,-10.79134 l -4.783618,-4.21071 3.697213,-1.896783 c 4.687015,-2.40459 3.964264,-3.22127 -1.539265,-1.73933 -3.983177,1.07256 -4.411311,0.98263 -6.828214,-1.43427 l -2.578582,-2.57858 h 3.572114 c 4.41707,0 16.259729,-5.83555 16.701897,-8.22997 0.27015,-1.46291 -0.695377,-1.25507 -6.254528,1.34637 -7.110533,3.32742 -6.899648,3.31891 -32.178249,1.29868 -6.486456,-0.51839 -7.158612,-0.39525 -7.627368,1.39727 -0.423784,1.62055 0.122949,2.07112 3.113311,2.5657 1.995052,0.32996 4.983721,0.60489 6.641485,0.61094 6.426067,0.0235 13.596414,3.72306 20.459951,10.556463 9.42121,9.37985 16.44814,13.07098 30.364184,15.9498 2.35155,0.48647 2.63064,0.83731 1.62756,2.04595 -1.73474,2.09023 -0.25187,1.79868 3.14158,-0.61767 z M 106.34871,89.771127 c 4.23068,-3.25444 7.94146,-7.7904 6.30254,-7.70407 -1.38349,0.0729 -13.003208,10.95025 -11.69971,10.95226 0.64474,9.9e-4 3.07347,-1.46069 5.39717,-3.24819 z M 52.822208,76.398267 C 52.480991,74.579424 51.70854,72.78642 51.10565,72.413814 c -1.121564,-0.693164 -0.47182,6.841481 0.957829,11.107313 0.568795,1.69718 0.723941,1.55972 1.024702,-0.90794 0.194932,-1.59936 0.07524,-4.396077 -0.265973,-6.21492 z m 52.381382,3.69855 c 2.49783,-2.497835 4.40137,-6.083345 3.63598,-6.848737 -0.75595,-0.755951 -6.46465,5.83133 -6.51965,7.523047 -0.0563,1.73094 0.6416,1.56775 2.88367,-0.67431 z m 10.87045,-14.825695 c -0.5127,-6.615407 -3.47406,-13.672858 -7.20493,-17.17061 -3.70896,-3.477208 -3.93577,-2.227307 -0.519,2.860136 3.18739,4.745917 5.92917,12.718981 5.92917,17.241975 0,1.550175 0.50409,2.818499 1.12019,2.818499 0.74871,0 0.97241,-1.906828 0.67457,-5.75 z m -3.79476,0.131966 c 0,-1.412023 -0.43519,-2.231037 -1,-1.881966 -0.55,0.339919 -1,1.743034 -1,3.118034 0,1.412023 0.43519,2.231037 1,1.881966 0.55,-0.339919 1,-1.743034 1,-3.118034 z M 7.3836993,104.94643 C -2.7707847,82.236367 -0.64929166,55.996007 13.076354,34.535017 l 4.468051,-6.986105 2.420587,5.484782 c 1.331323,3.016629 4.19667,7.59111 6.367437,10.165511 2.170768,2.574401 3.94685,5.639054 3.94685,6.81034 0,1.171286 0.402847,1.880638 0.895215,1.576338 0.853096,-0.527243 2.38595,1.807896 2.583207,3.935239 0.051,0.55 1.314217,2.30321 2.807151,3.896023 3.289631,3.509708 3.411899,4.603977 0.514427,4.603977 -1.711111,0 -1.933333,0.266667 -1,1.2 0.66,0.66 1.2,2.115836 1.2,3.235191 0,1.481463 -0.544154,1.019918 -2,-1.696376 -2.328634,-4.344726 -2.461257,-5.091243 -0.75,-4.221644 0.6875,0.349362 0.35,-0.192728 -0.75,-1.204646 -2.759369,-2.538412 -5.29033,-5.87082 -3.761454,-4.952546 0.840345,0.504729 1.047786,0.246785 0.645215,-0.802298 -0.326332,-0.850406 -0.945189,-1.328733 -1.375239,-1.062948 -0.43005,0.265785 -1.395396,-0.299299 -2.145215,-1.255743 -1.2337,-1.573668 -1.196938,-1.608514 0.386693,-0.366545 1.209016,0.948176 1.75,1.013144 1.75,0.210162 0,-1.911872 -3.963555,-9.082607 -5.020324,-9.082607 -0.538822,0 -0.979676,-0.675 -0.979676,-1.5 0,-0.825 -0.45,-1.5 -1.000001,-1.5 -1.39452,0 -1.27744,0.496617 0.996263,4.22583 2.317093,3.800381 2.596348,5.510882 0.633789,3.882103 -0.753472,-0.625326 -2.5719,-3.815257 -4.040949,-7.088735 -4.803432,-10.70347 -6.501816,-8.100645 -1.995651,3.058394 1.426399,3.532324 4.285029,8.672408 6.352512,11.422408 5.185854,6.897811 5.076771,6.636131 6.517674,15.63517 1.42224,8.882475 0.758556,12.810665 -3.440893,20.365835 -3.773119,6.78817 -14.213625,19.499003 -16.016218,19.499003 -0.406314,0 -2.1622607,-3.18362 -3.9021057,-7.0747 z m 14.8955787,6.85456 c 0,-0.19599 2.137501,-2.11308 4.750001,-4.26021 2.6125,-2.14713 3.85,-2.86885 2.75,-1.60383 -1.944126,2.23578 -7.500001,6.57976 -7.500001,5.86404 z m 5.500001,-11.77986 c 0.995486,-1.100003 2.034975,-2.000003 2.309975,-2.000003 0.275,0 -0.314489,0.9 -1.309975,2.000003 -0.995486,1.1 -2.034975,2 -2.309975,2 -0.275,0 0.314489,-0.9 1.309975,-2 z m 9.752183,-24.500008 c 0.0111,-2.2 0.215885,-2.982253 0.455078,-1.738341 0.239193,1.243913 0.230112,3.043913 -0.02018,4 -0.250293,0.956088 -0.445997,-0.06166 -0.434898,-2.261659 z m 4.942765,1 c 0.02038,-1.65 0.244498,-2.203936 0.498042,-1.230968 0.253543,0.972967 0.236869,2.322967 -0.03705,3 -0.273927,0.677032 -0.481372,-0.119032 -0.460992,-1.769032 z m -1.116001,-7.083333 c 0.04798,-1.164943 0.284941,-1.4019 0.604167,-0.604167 0.288871,0.721875 0.253344,1.584375 -0.07895,1.916667 -0.332292,0.332291 -0.568641,-0.258334 -0.52522,-1.3125 z M 21.463292,33.751796 c -1.201208,-2.89813 -2.184014,-5.849687 -2.184014,-6.559017 0,-2.416218 1.808891,-0.18046 3.300621,4.079509 0.818306,2.336859 1.808574,5.036334 2.200594,5.998834 0.39202,0.9625 0.297425,1.75 -0.210211,1.75 -0.507637,0 -1.905782,-2.371197 -3.10699,-5.269326 z"
       id="path12" />
  </g>
</svg>
